<svg version="1.1" id="Layer_1" xmlns="http://www.w3.org/2000/svg" xmlns:xlink="http://www.w3.org/1999/xlink"
	 viewBox="0 0 473.935 473.935" xml:space="preserve">
<circle style="fill:#A2D4DE;" cx="236.967" cy="236.967" r="236.967"/>
<path style="fill:#357180;" d="M457.056,324.944c-34.933,87.311-120.321,148.991-220.107,148.991
	c-100.209,0-185.892-62.207-220.541-150.109c-5.306-13.444,107.58-41.268,220.425-41.029
	C349.685,283.04,462.5,311.343,457.056,324.944z"/>
<rect x="166.285" y="116.295" style="fill:#ECE9E9;" width="141.552" height="86.398"/>
<g>
	<rect x="320.746" y="130.775" style="fill:#525252;" width="3.742" height="81.852"/>
	<ellipse style="fill:#525252;" cx="322.392" cy="130.439" rx="3.978" ry="1.519"/>
</g>
<path style="fill:#D62127;" d="M361.962,133.705h-40.093c-1.141,0-2.062,0.928-2.062,2.062v24.299c0,1.141,0.921,2.062,2.062,2.062
	h40.093c1.141,0,2.062-0.92,2.062-2.062v-24.299C364.024,134.633,363.103,133.705,361.962,133.705z"/>
<path style="fill:#FFFFFF;" d="M364.024,160.066v-1.717l-39.214-24.643h-2.941c-1.141,0-2.062,0.928-2.062,2.062v1.302
	l39.887,25.059h2.264C363.103,162.124,364.024,161.204,364.024,160.066z"/>
<rect x="166.285" y="116.295" style="fill:#E7E7E7;" width="71.318" height="86.398"/>
<rect x="174.596" y="127.745" style="fill:#E4DEDF;" width="124.897" height="43.352"/>
<rect x="178.76" y="132.373" style="fill:#B1D4D7;" width="116.557" height="34.129"/>
<rect x="178.76" y="132.373" style="fill:#A7CACB;" width="58.282" height="34.129"/>
<polygon style="fill:#E5DBC5;" points="322.535,349.895 153.226,349.895 97.99,211.703 237.877,195.048 377.763,211.703 "/>
<polygon style="fill:#E8E1D3;" points="322.535,349.895 237.877,349.895 237.877,195.048 377.763,211.703 "/>
<polygon style="fill:#E5DBC5;" points="100.755,220.597 97.99,210.767 237.877,194.113 377.763,210.767 374.452,222.543
	238.988,205.215 "/>
<polygon style="fill:#D7D0BC;" points="100.755,220.597 97.99,210.767 237.877,194.113 237.847,205.346 "/>
</svg>
