<svg version="1.2" xmlns="http://www.w3.org/2000/svg" viewBox="0 0 8 13" width="8" height="13">
	<title>Path 1-svg</title>
	<style>
		.s0 { fill: #ffffff } 
	</style>
	<path id="Path_1" class="s0" d="m2.1 12.6l5-4.9q0.1-0.1 0.2-0.2 0.1-0.1 0.1-0.3 0-0.1 0.1-0.2 0-0.1 0-0.2 0-0.2 0-0.3 0-0.1-0.1-0.2 0-0.1-0.1-0.2-0.1-0.1-0.2-0.2l-5-5q-0.1-0.1-0.3-0.2-0.1-0.1-0.3-0.1-0.2-0.1-0.4-0.1-0.2 0.1-0.3 0.1-0.2 0.1-0.3 0.2-0.2 0.1-0.3 0.3-0.1 0.1-0.2 0.3 0 0.2 0 0.4v10q0 0.1 0.1 0.3 0 0.2 0.1 0.3 0.1 0.2 0.3 0.3 0.1 0.1 0.3 0.2 0.1 0.1 0.3 0.1 0.2 0 0.4 0 0.2-0.1 0.3-0.1 0.2-0.1 0.3-0.3z"/>
</svg>